<svg width="198" height="60" viewBox="0 0 198 60" fill="none" xmlns="http://www.w3.org/2000/svg">
<path d="M8.84647 52.6562L17.4265 8.59622H9.13647L0.586472 52.6562H8.84647Z" fill="#F9BF4B"/>
<path d="M27.21 20.6362L21 52.6562H28.44L32.34 32.5862C34.27 29.8062 37.14 26.9662 40.19 26.9662C43.94 26.9662 44.67 29.6862 43.97 33.2862L40.19 52.6562H47.6L51.38 33.3162C52.76 26.1962 51.61 19.5262 43.15 20.1062C39.75 20.3462 36.82 21.7462 33.48 25.0562L34.06 20.6362H27.21Z" fill="#F9BF4B"/>
<path d="M77.65 13.9862L80.02 8.18622C76.89 7.21622 75.63 7.03622 74.25 7.03622C67.25 7.03622 64.14 10.8762 63.03 16.5062L62.24 20.6362H57.29L56.15 26.5562H61.1L56 52.6562H63.35L68.42 26.5562H74.69L75.86 20.6362H69.56L70.35 16.4462C70.74 14.3062 71.7 13.4262 73.46 13.4262C73.9 13.4262 75.13 13.3962 77.65 13.9862Z" fill="#F9BF4B"/>
<path d="M91.2211 53.0662C92.5711 53.0662 93.8511 52.7762 96.0811 52.0162L96.2611 46.5962C94.6511 46.7962 94.0611 47.0062 93.3011 47.0062C91.9211 47.0062 91.2811 46.4462 91.6611 44.4562L99.0711 6.45622L91.1911 9.17622L84.3311 44.4562C83.4811 48.6962 83.7811 53.0662 91.2211 53.0662Z" fill="#F9BF4B"/>
<path d="M127.694 52.6262L133.934 20.6362H126.464L122.534 40.9962C120.604 43.8062 117.734 46.6162 114.654 46.6162C110.934 46.6162 110.204 43.9262 110.904 40.2962L114.744 20.6362H107.334L103.494 40.2662C102.114 47.3862 103.254 54.1162 111.724 53.5062C115.124 53.2462 118.054 51.8662 121.394 48.5262L121.154 52.6262H127.694Z" fill="#F9BF4B"/>
<path d="M197.09 30C197.09 13.6828 183.862 0.455048 167.545 0.455048C151.228 0.455048 138 13.6828 138 30C138 46.3172 151.228 59.545 167.545 59.545C183.862 59.545 197.09 46.3172 197.09 30Z" fill="#F9BF4B"/>
<path d="M183.026 52.6562L172.716 28.6962L190.326 8.59622H180.886C180.886 8.59622 173.156 18.3462 172.246 19.4662C171.686 20.1362 170.516 21.6062 169.666 22.6862C169.256 21.6062 168.616 20.0762 168.286 19.3162C167.766 18.0862 163.866 8.59622 163.866 8.59622H154.226L164.276 28.9862L144.766 52.6562H154.166C154.166 52.6562 165.066 38.4762 165.746 37.5962C166.096 37.1562 166.706 36.2462 167.236 35.4862C167.466 36.2162 167.736 37.0662 167.936 37.5662C168.316 38.5362 173.626 52.6562 173.626 52.6562H183.026Z" fill="#091F6F"/>
</svg>
